# xmcd
#
# Track frame offsets: 
#        150
#        13014
#        31910
#        45618
#        57214
#        72074
#        82383
#        96718
#        111660
#        128670
#        143581
#        153025
#        163486
#        185433
#        206714
#        222441
#        232893
#        255674
#        270970
#
# Disc length: 3800 seconds
#
# Revision: 0
# Processed by: cddbd v1.5.2PL0 Copyright (c) Steve Scherf et al.
# Submitted via: ExactAudioCopy v0.99pb5
#
DISCID=130ed613
DTITLE=Various Artist - The Blues CD2 - USA Post War Bluesplayers - 1
DYEAR=2009
DGENRE=Blues
TTITLE0=Big Mamma Thornton - Hound Dog
TTITLE1=Arthur Crudup - Old And Grey
TTITLE2=Koko Taylor - Wang Dang Doodle
TTITLE3=Slim Harpo - Baby, Scratch My Back
TTITLE4=Otis Spann - Burning Fire
TTITLE5=Elmore James - Talk To Me Baby
TTITLE6=John Lee Hooker - Boogie Chillen
TTITLE7=T-Bone Walker - I Got The Blues Again
TTITLE8=Billie Holiday - Lady Sings The Blues
TTITLE9=James Cotton - Everybody's Fishin'
TTITLE10=Bobby Bland - Lead Me On
TTITLE11=Little Walter - Hate To See You Go
TTITLE12=R.L. Burnside - Everything is Broken
TTITLE13=Otish Rush - Little Red Rooster
TTITLE14=Johnny Winter - Hustled Down In Texas
TTITLE15=Jimmy Reed - Going To New York
TTITLE16=Robert Pete Williams - Free Again
TTITLE17=Sonny Boy Williamson - Mean Old Highway
TTITLE18=JB Lenoir - I'll Die Tryin'
EXTD=
EXTT0=
EXTT1=
EXTT2=
EXTT3=
EXTT4=
EXTT5=
EXTT6=
EXTT7=
EXTT8=
EXTT9=
EXTT10=
EXTT11=
EXTT12=
EXTT13=
EXTT14=
EXTT15=
EXTT16=
EXTT17=
EXTT18=
PLAYORDER=
